# xmcd
#
# Track frame offsets:
#	150
#	20492
#	32716
#	49588
#	67180
#	82951
#	95605
#	112131
#	128889
#	146835
#
# Disc length: 2192 seconds
#
# Revision: 0
# Processed by: cddbd v1.5.2PL0 Copyright (c) Steve Scherf et al.
# Submitted via: EZCDAudioConverter 1.3.4.1
#
DISCID=8e088e0a
DTITLE=Rick Springfield - Beginnings...
DYEAR=1900
DGENRE=
TTITLE0=Mother Can You Carry Me
TTITLE1=Speak To The Sky
TTITLE2=What Would The Children Think
TTITLE3=1000 Years
TTITLE4=The Unhappy Ending
TTITLE5=Hooky Jo
TTITLE6=I Didn't Mean To Love You
TTITLE7=Come On Everybody
TTITLE8=Why?
TTITLE9=The Ballad Of Annie Goodbody
EXTD=
EXTT0=
EXTT1=
EXTT2=
EXTT3=
EXTT4=
EXTT5=
EXTT6=
EXTT7=
EXTT8=
EXTT9=
PLAYORDER=
